<svg width="512" height="512" viewBox="0 0 512 512" fill="none" xmlns="http://www.w3.org/2000/svg">
<path d="M512 256C512 397.385 397.385 512 256 512C114.615 512 0 397.385 0 256C0 114.615 114.615 0 256 0C397.385 0 512 114.615 512 256ZM48 256C48 370.875 141.125 464 256 464C370.875 464 464 370.875 464 256C464 141.125 370.875 48 256 48C141.125 48 48 141.125 48 256ZM278.627 105.372L406.627 233.373C419.123 245.869 419.123 266.13 406.627 278.627C394.131 291.124 373.869 291.124 361.371 278.627L288 205.255V384C288 401.673 273.673 416 256 416C238.327 416 224 401.673 224 384V205.255L150.628 278.628C138.131 291.125 117.869 291.125 105.372 278.628C99.124 272.379 96 264.189 96 256C96 247.811 99.124 239.621 105.372 233.373L233.372 105.372C245.869 92.876 266.131 92.876 278.627 105.372Z" fill="#DCBFA5"/>
</svg>
